<?xml version="1.0" encoding="UTF-8" standalone="no"?>
<svg width="333px" height="333px" viewBox="0 0 333 333" version="1.1" xmlns="http://www.w3.org/2000/svg" xmlns:xlink="http://www.w3.org/1999/xlink" xmlns:sketch="http://www.bohemiancoding.com/sketch/ns">
    <!-- Generator: Sketch 3.4.2 (15855) - http://www.bohemiancoding.com/sketch -->
    <title>Handshake</title>
    <desc>Created with Sketch.</desc>
    <defs></defs>
    <g id="Page-1" stroke="none" stroke-width="1" fill="none" fill-rule="evenodd" sketch:type="MSPage">
        <g id="Handshake" sketch:type="MSArtboardGroup" stroke="#FFFFFF" stroke-width="2.88">
            <g sketch:type="MSLayerGroup" transform="translate(120.000000, 120.000000)">
                <path d="M49.6711718,79.1800403 L55.8066819,79.1800403 L58.564781,79.1800403 C58.564781,79.1800403 78.3916701,79.1800403 79.1234374,56.6773129 C79.8552047,34.1745855 58.564781,34.1745855 58.564781,34.1745855 C58.564781,34.1745855 58.564781,14.8625008 36.6807535,14.1224157 C14.796726,13.3823305 14.0649547,34.1745855 14.0649547,34.1745855 L14.0649547,35.9921581 L13.8806901,43.1502545" id="Rectangle-15" stroke-linecap="round" stroke-linejoin="round" sketch:type="MSShapeGroup" transform="translate(46.511284, 46.641579) rotate(-45.000000) translate(-46.511284, -46.641579) "></path>
                <path d="M48.7124443,27.6351181 C48.7124443,27.6351181 33.6845817,40.3139105 31.5414334,44.8300351 C29.398285,49.3461598 30.724515,56.8801284 30.724515,56.8801284 C30.724515,56.8801284 32.9216541,58.6246967 34.8091069,57.7408493 C36.6965597,56.8570019 36.7847155,56.3868244 38.0767805,53.4372446 C39.3688454,50.4876648 39.6853784,47.9974106 39.6853784,47.9974106 L47.0393613,40.6232816" id="Path-5" stroke-linecap="round" stroke-linejoin="round" sketch:type="MSShapeGroup" transform="translate(39.515618, 42.812937) rotate(-1.000000) translate(-39.515618, -42.812937) "></path>
                <g id="fingertibs" transform="translate(20.246154, 63.630769)" sketch:type="MSShapeGroup">
                    <path d="M1.9966387,8.62257952 C-0.164414899,6.36756734 0.843589744,4.65284281 0.843589744,4.65284281 C0.843589744,4.65284281 2.78494608,1.91086425 4.15769231,1.19464883 C4.90279229,0.805901012 6.97016328,0.684915165 8.13461538,1.88628762 C8.56583228,2.33117677 9.49172682,4.68148929 8.797436,6.03612045 C7.47179497,8.62257929 5.48333333,9.49431438 5.48333333,9.49431438 C5.48333333,9.49431438 4.15769231,10.8775917 1.9966387,8.62257952 Z" id="Path-5-Copy"></path>
                    <path d="M6.99937883,14.5008792 C4.83832523,12.245867 5.84632987,10.5311425 5.84632987,10.5311425 C5.84632987,10.5311425 9.11332723,6.40588634 10.4860735,5.68967091 C11.2311734,5.3009231 13.2985444,5.17993725 14.4629965,6.38130971 C14.8942134,6.82619885 15.820108,9.17651138 15.1258172,10.5311425 C13.8001761,13.1176014 10.4860735,15.3726141 10.4860735,15.3726141 C10.4860735,15.3726141 9.16043244,16.7558914 6.99937883,14.5008792 Z" id="Path-5-Copy-2"></path>
                    <path d="M12.6017669,19.6888003 C10.4407133,17.4337881 11.4487179,15.7190635 11.4487179,15.7190635 C11.4487179,15.7190635 14.5952025,11.6566837 15.9679487,10.9404682 C16.7130487,10.5517204 18.7804197,10.4307346 19.9448718,11.632107 C20.3760887,12.0769962 21.3019832,14.4273087 20.6076924,15.7819399 C19.2820514,18.3683987 16.0884615,20.5605351 16.0884615,20.5605351 C16.0884615,20.5605351 14.7628205,21.9438124 12.6017669,19.6888003 Z" id="Path-5-Copy-3"></path>
                    <path d="M18.0263019,24.1838223 C15.8652483,21.9288102 16.8732529,20.2140856 16.8732529,20.2140856 C16.8732529,20.2140856 18.8146093,17.4721071 20.1873555,16.7558917 C20.9324555,16.3671438 22.9998265,16.246158 24.1642786,17.4475304 C24.5954955,17.8924196 25.52139,20.2427321 24.8270992,21.5973633 C23.5014582,24.1838221 21.5129965,25.0555572 21.5129965,25.0555572 C21.5129965,25.0555572 20.1873555,26.4388345 18.0263019,24.1838223 Z" id="Path-5-Copy-4"></path>
                </g>
                <g id="fingers" transform="translate(57.361538, 64.992308) scale(-1, 1) translate(-57.361538, -64.992308) translate(43.861538, 40.492308)" sketch:type="MSShapeGroup" stroke-linecap="round" stroke-linejoin="round">
                    <path d="M13.7384615,23.1384615 C13.7384615,23.1384615 7.23076911,29.6461529 5.78461538,31.0923077 C5.18261747,31.3773046 2.89230773,32.5384615 1.44615386,31.0923077 C-1.60734941e-09,29.6461538 -1.60734941e-09,27.4769231 -1.60734941e-09,27.4769231 C-1.60734941e-09,27.4769231 4.49698087,20.3018251 9.75582227,14.8547907 C14.2243797,10.2263213 18.7346619,5.28742708 23.1384615,0.723076907" id="Path-5"></path>
                    <path d="M20.9692314,28.9991009 C18.0178588,31.8686525 10.5779395,38.1691897 10.5779395,38.1691897 C10.5779395,38.1691897 9.22522706,39.5415837 7.02004172,37.3043135 C4.81485639,35.0670433 5.84344589,33.3658099 5.84344589,33.3658099 L14.3286423,23.2599978" id="Path-5-Copy-2"></path>
                    <path d="M26.7538462,34.7076923 C23.8615392,37.6 15.9076923,44.1076923 15.9076923,44.1076923 C15.9076923,44.1076923 14.4533613,44.9165507 12.2923077,42.6615385 C10.8461539,41.2153846 11.5692308,39.0461539 11.5692308,39.0461539 C11.5692308,39.0461539 18.8000001,31.8153845 20.9692309,28.9230769" id="Path-5-Copy-3"></path>
                    <path d="M26.0307694,45.5538462 C26.0307694,45.5538462 23.8615386,47.7230769 22.0688208,48.4461538 C20.2485102,49.1803601 19.5230769,48.4461538 18.0769231,47 C15.9076924,44.8307693 18.8,42.6615385 18.8,42.6615385 L26.7538459,34.7076923" id="Path-5-Copy-4"></path>
                </g>
            </g>
        </g>
    </g>
</svg>